<?xml version="1.0" encoding="utf-8"?>
<!-- Generator: Adobe Adobe Illustrator 24.2.0, SVG Export Plug-In . SVG Version: 6.00 Build 0)  -->
<svg version="1.1" id="Layer_1" xmlns="http://www.w3.org/2000/svg" xmlns:xlink="http://www.w3.org/1999/xlink" x="0px" y="0px"
	 width="1920px" height="1080px" viewBox="0 0 1920 1080" style="enable-background:new 0 0 1920 1080;" xml:space="preserve">
<style type="text/css">
	.st0{clip-path:url(#SVGID_2_);}
	.st1{clip-path:url(#SVGID_4_);}
	.st2{clip-path:url(#SVGID_6_);fill:#E0E0E0;}
	.st3{clip-path:url(#SVGID_6_);fill:#FFFFFF;}
	.st4{clip-path:url(#SVGID_6_);fill:#EBEBEB;}
	.st5{clip-path:url(#SVGID_6_);fill:#F5F5F5;}
	.st6{clip-path:url(#SVGID_6_);fill:#FAFAFA;}
	.st7{clip-path:url(#SVGID_10_);fill:#263238;}
	.st8{clip-path:url(#SVGID_12_);fill:#263238;}
	.st9{clip-path:url(#SVGID_12_);fill:#FFBE9D;}
	.st10{clip-path:url(#SVGID_12_);fill:#EB996E;}
	.st11{clip-path:url(#SVGID_12_);fill:#FF725E;}
	.st12{clip-path:url(#SVGID_12_);fill:#455A64;}
	.st13{opacity:0.2;clip-path:url(#SVGID_12_);}
	.st14{clip-path:url(#SVGID_14_);}
	.st15{clip-path:url(#SVGID_16_);}
	.st16{clip-path:url(#SVGID_18_);}
	.st17{opacity:0.3;clip-path:url(#SVGID_12_);}
	.st18{clip-path:url(#SVGID_20_);}
	.st19{clip-path:url(#SVGID_12_);fill:#FFFFFF;}
	.st20{clip-path:url(#SVGID_22_);fill:#F5F5F5;}
	.st21{clip-path:url(#SVGID_22_);fill:#263238;}
	.st22{clip-path:url(#SVGID_22_);fill:#FF725E;}
	.st23{opacity:0.3;clip-path:url(#SVGID_22_);}
	.st24{clip-path:url(#SVGID_24_);fill:#FFFFFF;}
	.st25{clip-path:url(#SVGID_22_);fill:#FFFFFF;}
	.st26{clip-path:url(#SVGID_26_);fill:#F5F5F5;}
	.st27{clip-path:url(#SVGID_26_);fill:#263238;}
	.st28{clip-path:url(#SVGID_26_);fill:#FF725E;}
	.st29{opacity:0.3;clip-path:url(#SVGID_26_);}
	.st30{clip-path:url(#SVGID_28_);}
	.st31{clip-path:url(#SVGID_30_);fill:#FFFFFF;}
	.st32{clip-path:url(#SVGID_32_);fill:#FFFFFF;}
	.st33{clip-path:url(#SVGID_34_);}
	.st34{clip-path:url(#SVGID_36_);fill:#F5F5F5;}
	.st35{clip-path:url(#SVGID_36_);fill:#263238;}
	.st36{clip-path:url(#SVGID_36_);fill:#FFFFFF;}
	.st37{clip-path:url(#SVGID_36_);fill:#E0E0E0;}
	.st38{clip-path:url(#SVGID_36_);fill:#FF725E;}
	.st39{opacity:0.3;clip-path:url(#SVGID_36_);}
	.st40{clip-path:url(#SVGID_38_);}
	.st41{clip-path:url(#SVGID_40_);}
	.st42{clip-path:url(#SVGID_42_);fill:#F5F5F5;}
	.st43{clip-path:url(#SVGID_42_);fill:#263238;}
	.st44{clip-path:url(#SVGID_42_);fill:#FF725E;}
	.st45{opacity:0.5;clip-path:url(#SVGID_42_);}
	.st46{clip-path:url(#SVGID_44_);}
	.st47{clip-path:url(#SVGID_42_);fill:#FAFAFA;}
	.st48{clip-path:url(#SVGID_42_);fill:#E0E0E0;}
	.st49{opacity:0.4;clip-path:url(#SVGID_42_);}
	.st50{clip-path:url(#SVGID_46_);}
	.st51{clip-path:url(#SVGID_42_);fill:#455A64;}
	.st52{clip-path:url(#SVGID_42_);fill:#FFFFFF;}
	.st53{clip-path:url(#SVGID_48_);fill:#6ACFC9;}
	.st54{clip-path:url(#SVGID_48_);fill:#FFFFFF;}
	.st55{clip-path:url(#SVGID_48_);fill:none;stroke:#0A2A42;stroke-linecap:round;stroke-linejoin:round;stroke-miterlimit:10;}
	.st56{clip-path:url(#SVGID_48_);fill:#937BCF;}
	.st57{clip-path:url(#SVGID_48_);fill:#FDD866;}
	.st58{clip-path:url(#SVGID_48_);fill:#FF7654;}
	.st59{clip-path:url(#SVGID_48_);fill:#F6C199;}
	.st60{clip-path:url(#SVGID_48_);fill:#0A2A42;}
	.st61{clip-path:url(#SVGID_48_);fill:none;stroke:#937BCF;stroke-width:1.076;stroke-linecap:round;stroke-miterlimit:10;}
	.st62{clip-path:url(#SVGID_48_);fill:none;stroke:#937BCF;stroke-width:2.151;stroke-linecap:round;stroke-miterlimit:10;}
	.st63{fill:none;}
	.st64{clip-path:url(#SVGID_50_);fill:#E3E8FF;}
	.st65{clip-path:url(#SVGID_52_);}
	.st66{clip-path:url(#SVGID_52_);fill:#0097A7;}
	.st67{fill:#FF8D01;}
	.st68{fill:#FBCC34;}
	.st69{fill:#FFFFFF;}
	.st70{fill:#536DFE;}
	.st71{fill:none;stroke:#FFFFFF;stroke-linecap:round;stroke-linejoin:round;stroke-miterlimit:10;}
	.st72{fill:none;stroke:#FFFFFF;stroke-width:4;stroke-linecap:round;stroke-linejoin:round;stroke-miterlimit:10;}
	.st73{fill:#253070;}
	.st74{fill:#ED7F6E;}
	.st75{fill:#773040;}
	.st76{fill:#961717;}
	.st77{fill:#520C0C;}
	.st78{fill:none;stroke:#000000;stroke-linecap:round;stroke-linejoin:round;stroke-miterlimit:10;}
	.st79{fill:none;stroke:#000000;stroke-width:2;stroke-linecap:round;stroke-linejoin:round;stroke-miterlimit:10;}
	.st80{fill:#FFB996;}
	.st81{font-family:'Poppins-SemiBold';}
	.st82{font-size:14px;}
	.st83{font-size:15px;}
</style>
<rect x="1205.5" y="759.65" class="st63" width="603.31" height="402.21"/>
<g>
	<g>
		<defs>
			<rect id="SVGID_49_" x="272.48" y="273.04" width="603.31" height="402.21"/>
		</defs>
		<clipPath id="SVGID_2_">
			<use xlink:href="#SVGID_49_"  style="overflow:visible;"/>
		</clipPath>
		<path style="clip-path:url(#SVGID_2_);fill:#E3E8FF;" d="M368.44,675.17c-21.7-29.02-42.53-60.41-48.24-96.2
			c-5.71-35.79,7.7-77,39.98-93.47c36.2-18.48,80.76-0.82,120.35-9.98c35.8-8.29,62.58-37,92.99-57.61
			c35.24-23.88,77.34-37.5,119.89-38.78c30.39-0.91,62.01,4.83,86.67,22.62c31.97,23.06,47.88,63.65,49.16,103.05
			c1.29,39.4-10.26,78.08-24.09,115c-6.72,17.93-13.93,38.35-5.32,55.46L368.44,675.17z"/>
	</g>
	<g>
		<defs>
			<polygon id="SVGID_51_" points="272.48,273.04 272.48,443.14 272.48,675.25 875.79,675.25 875.79,273.04 			"/>
		</defs>
		<clipPath id="SVGID_4_">
			<use xlink:href="#SVGID_51_"  style="overflow:visible;"/>
		</clipPath>
		<path class="st1" d="M248.2,537.56c0,0,58.91,6.87,73.5,39.22c0,0,27.12-0.5,42.17,9.01l-37.74,2.57c0,0,40.41,31.68,36.31,118.98
			c16.85-75.77,26.22-127.09,2.46-150.61C341.15,533.2,284.29,514.24,248.2,537.56"/>
		<path style="clip-path:url(#SVGID_4_);fill:#0097A7;" d="M318.87,557.97c14.49-2.08,27.24,2.64,39.87,10.05
			c-14.69-2.99-21.01-1.26-31.57,2.94c34.76,32.71,43.51,89.35,35.29,136.37c14.43-27.38,26.07-57.05,27.02-87.99
			c0.95-30.94-9.3-64.58-34.46-82.61c-54.18-38.81-99.16-7.26-106.81,0.83C276.68,522.24,305,543.03,318.87,557.97"/>
		<path class="st1" d="M321.68,482.44c0,0,61.24,33.56,62.84,75.31c0,0,29.81,11.46,42.03,28.49l-42.31-13.89
			c0,0,30.07,52.45-13.03,145.89c51.92-75.21,84.85-127.06,69.34-163.24C425.02,518.82,371.37,472.97,321.68,482.44"/>
		<path style="clip-path:url(#SVGID_4_);fill:#0097A7;" d="M389.74,535.99c16.73,4.15,28.55,14.94,39.05,28.61
			c-14.71-9.76-22.36-10.68-35.74-10.76c23.45,51.07,7.93,116.74-21.85,164.4c27.86-23.49,53.69-50.71,68.42-84.05
			c14.73-33.33,18.43-74.58-1.04-105.38c-41.94-66.32-104.98-51.8-116.9-46.36C359.52,478.33,381.22,513.54,389.74,535.99"/>
		<path class="st1" d="M240,630.34c0,0,43.93-6.89,60.98,13.54c0,0,19.49-5.81,32.27-1.98l-26.74,9.45c0,0,35.56,14.76,50.16,78.63
			c-3.07-58.11-6.62-97.07-28.51-109.28C306.26,608.5,261.37,606.24,240,630.34"/>
		<path style="clip-path:url(#SVGID_4_);fill:#0097A7;" d="M295.14,630.88c10.05-4.41,20.21-3.57,30.81-0.76
			c-11.21,0.8-15.43,3.31-22.21,8.47c31.69,16.64,49.4,55.79,52.92,91.4c4.92-22.68,7.35-46.45,1.82-68.99
			c-5.53-22.54-19.71-44.78-41.51-52.73c-46.94-17.14-73.08,14.7-76.98,22.08C257.48,613.55,282.12,622.87,295.14,630.88"/>
		<path class="st1" d="M939.76,590.31c0,0-57.02-16.35-82.93,7.89c0,0-24.83-10.9-42.39-7.93l33.84,16.9
			c0,0-49.49,13.68-79.33,95.82c13.62-76.41,24.73-127.39,55.72-139.95C855.66,550.5,915.44,554.9,939.76,590.31"/>
		<path style="clip-path:url(#SVGID_4_);fill:#0097A7;" d="M866.69,581.94c-12.57-7.49-26.16-8.05-40.66-6.08
			c14.71,2.9,19.88,6.92,28,14.87c-44.67,16.81-74.56,65.71-85.07,112.27c-2.78-30.83-2.09-62.69,8.94-91.61
			c11.03-28.92,33.45-56.02,63.61-62.97c64.95-14.96,94.31,31.48,98.25,41.89C919.38,565.21,885.24,573.49,866.69,581.94"/>
		<path class="st1" d="M893.17,511.16c0,0-69.44,7.39-87,45.31c0,0-31.92-0.9-49.75,10.11l44.4,3.47c0,0-47.94,36.83-44.15,139.66
			c-18.95-89.4-29.39-149.94-1.14-177.35C783.79,504.94,850.96,483.28,893.17,511.16"/>
		<path style="clip-path:url(#SVGID_4_);fill:#0097A7;" d="M809.74,534.36c-17.04-2.61-32.1,2.8-47.05,11.36
			c17.33-3.34,24.75-1.24,37.13,3.83c-41.31,38.11-52.27,104.69-43.14,160.14c-16.67-32.41-30.02-67.47-30.78-103.91
			c-0.76-36.44,11.7-75.93,41.54-96.86c64.24-45.06,116.84-7.39,125.74,2.22C859.83,492.79,826.24,516.93,809.74,534.36"/>
		<path class="st1" d="M911.61,679.1c0,0-37.89-23.28-61.49-10.98c0,0-15.74-12.87-29.02-14.25l21.04,19.02
			c0,0-38.5-0.07-76.57,53.26c25.21-52.45,43.49-87.03,68.39-89.87C858.87,633.43,901.16,648.63,911.61,679.1"/>
		<path style="clip-path:url(#SVGID_4_);fill:#0097A7;" d="M860.51,658.36c-7.57-7.94-17.27-11.07-28.15-12.57
			c10.04,5.05,12.96,9,17.23,16.37c-35.65,3.15-67.07,32.46-84.03,63.98c4.19-22.82,11.1-45.7,24.88-64.37
			c13.79-18.67,35.43-33.74,58.61-32.69c49.92,2.26,61.79,41.71,62.54,50.02C901.93,656.87,875.61,655.99,860.51,658.36"/>
	</g>
	<polygon class="st67" points="338.87,675.25 332.1,675.25 339.21,629.93 345.97,629.93 	"/>
	<polygon class="st67" points="471,675.25 464.23,675.25 471.33,629.93 478.1,629.93 	"/>
	<polygon class="st67" points="810.63,675.25 817.4,675.25 810.3,629.93 803.53,629.93 	"/>
	<polygon class="st67" points="678.5,675.25 685.27,675.25 678.17,629.93 671.4,629.93 	"/>
	<path d="M321.73,634.94h504.8c1.57,0,2.85-1.28,2.85-2.85v-2.72c0-1.57-1.27-2.85-2.85-2.85h-504.8c-1.57,0-2.85,1.28-2.85,2.85
		v2.72C318.88,633.66,320.16,634.94,321.73,634.94"/>
	<path class="st68" d="M760.97,427.81H620.61v-16.45c0-9.09,7.36-16.45,16.45-16.45h123.91c9.09,0,16.45,7.36,16.45,16.45
		S770.06,427.81,760.97,427.81"/>
	<rect x="649.4" y="559.88" width="23.01" height="67.16"/>
	<path d="M720.53,627.05H601.27c0-3.11,2.52-5.63,5.63-5.63H714.9C718.01,621.42,720.53,623.94,720.53,627.05"/>
	<path d="M798.33,607.37H523.47c-1.99,0-3.6-1.61-3.6-3.6V452.78c0-1.99,1.61-3.6,3.6-3.6h274.86c1.99,0,3.6,1.61,3.6,3.6v150.99
		C801.93,605.76,800.32,607.37,798.33,607.37"/>
	<path class="st69" d="M795.81,602.04H525.99c-1.99,0-3.6-1.61-3.6-3.6V458.11c0-1.99,1.61-3.6,3.6-3.6h269.82
		c1.99,0,3.6,1.61,3.6,3.6v140.32C799.41,600.43,797.8,602.04,795.81,602.04"/>
	<path class="st70" d="M797.32,454.51H678.78v147.53h118.54c1.15,0,2.09-0.97,2.09-2.16V456.67
		C799.41,455.48,798.48,454.51,797.32,454.51"/>
	<rect x="272.48" y="273.04" class="st63" width="603.31" height="402.21"/>
	<g>
		<line class="st71" x1="689.12" y1="496.59" x2="790.1" y2="496.59"/>
		<line class="st71" x1="689.12" y1="502.09" x2="790.1" y2="502.09"/>
		<line class="st71" x1="689.12" y1="507.59" x2="751.2" y2="507.59"/>
		<line class="st72" x1="689.12" y1="488.12" x2="714.77" y2="488.12"/>
		<line class="st71" x1="689.12" y1="534.42" x2="790.1" y2="534.42"/>
		<line class="st71" x1="689.12" y1="539.92" x2="721.07" y2="539.92"/>
		<line class="st72" x1="689.12" y1="525.95" x2="714.77" y2="525.95"/>
		<line class="st71" x1="689.12" y1="572.24" x2="790.1" y2="572.24"/>
		<line class="st71" x1="689.12" y1="577.74" x2="790.1" y2="577.74"/>
		<line class="st71" x1="689.12" y1="583.25" x2="729.86" y2="583.25"/>
		<line class="st72" x1="689.12" y1="563.77" x2="714.77" y2="563.77"/>
		<polygon class="st73" points="583.8,497.66 615.51,497.66 615.79,506.02 583.48,506.02 		"/>
		<path d="M587.77,463.81c0.26,4.45-2.23,8.21-5.56,8.4s-6.23-3.26-6.49-7.71c-0.26-4.45,2.23-8.21,5.56-8.4
			C584.61,455.92,587.52,459.37,587.77,463.81"/>
		<path d="M618.94,453.81c0.66,11.39-8,21.15-19.33,21.81c-11.33,0.65-21.05-8.05-21.7-19.44c-0.66-11.39,8-21.15,19.33-21.8
			C608.56,433.71,618.28,442.42,618.94,453.81"/>
		<path d="M621.49,463.81c0.26,4.45-2.23,8.21-5.56,8.4s-6.23-3.26-6.49-7.71c-0.26-4.45,2.23-8.21,5.56-8.4
			C618.33,455.92,621.23,459.37,621.49,463.81"/>
		<path class="st74" d="M619.84,506.77c-6.5,3.93-20.01,11.93-20.01,11.93c-0.05-0.04-13.85-8-20.35-11.93
			c1.84-0.49,5.44-0.88,7.28-1.37c1.07-8.07,1.17-11.18,1.17-19.69c0-0.49-0.01-0.98-0.01-1.47c-0.04-3.11-0.2-6.22-0.48-9.31v-0.01
			l11.99-0.78l0.05-0.01v-0.02l0.17,0.01l0.17-0.01v0.02l0.05,0.01l11.99,0.78v0.01c-0.29,3.24-0.45,6.5-0.48,9.75
			c-0.01,0.49-0.01,1-0.01,1.5c0.03,8.36,0.04,10.92,1.1,19.22C614.32,505.89,618,506.28,619.84,506.77"/>
		<path d="M611.87,474.93c-0.29,3.24-0.45,6.5-0.48,9.75c-3.5,5.97-8.27,12.18-10.44,12.18h-2.59c-1.73,0-6.77-6.54-10.44-12.62
			c-0.04-3.11-0.2-6.22-0.48-9.31l11.99-0.79v-0.03h0.05l0.17,0.01l0.17-0.01h0.05v0.03L611.87,474.93z"/>
		<path class="st75" d="M577.4,440c1.78-7.43,30.83-19.21,33.63-3.83c0,0,4,2.78,5.53,5.07c2.11,3.15,2.2,5.52,1.57,9.27
			c-0.94,5.59-2.23,6.94-2.78,13.65c-0.2,2.47-16.09,5.74-21.65,4.95c-4.22-0.59-11.92-1.69-12.55-6.33
			C580.27,456.34,576.41,444.1,577.4,440"/>
		<path class="st74" d="M606.79,445.79h-19.23c-3.56,0-6.39,2.97-6.22,6.53l0.88,21.79c0,2.46,8.84,14.45,12.48,14.45h7.34
			c4.86,0,12.68-11.71,12.68-14.45l1.07-16.65c0.07-1.05-0.36-2.08-1.16-2.77c-1.94-1.66-3.39-4.01-4.22-6.42
			C609.89,446.79,608.44,445.79,606.79,445.79"/>
		<path class="st76" d="M592.81,479.46c1.28,1.67,3.29,2.75,5.56,2.75c2.04,0,3.87-0.88,5.15-2.27
			C600.29,477.96,595.93,477.71,592.81,479.46"/>
		<path class="st77" d="M591.67,477.27c0.25,0.8,0.64,1.54,1.14,2.2c3.12-1.75,7.48-1.5,10.71,0.48c0.7-0.76,1.23-1.67,1.54-2.67
			H591.67z"/>
		<path class="st78" d="M597.82,474.62c-2.19-0.87-3.36-2.27-3.08-3.58c0.7-3.23,1.7-6.42,1.77-7.74"/>
		<path d="M591.45,462.99c-0.52,1.04-1.79,1.47-2.84,0.95c-1.04-0.52-1.47-1.79-0.95-2.84c0.52-1.04,1.79-1.47,2.84-0.95
			C591.54,460.68,591.97,461.95,591.45,462.99"/>
		<path d="M609.07,462.99c-0.52,1.04-1.79,1.47-2.84,0.95c-1.04-0.52-1.47-1.79-0.95-2.84c0.52-1.04,1.79-1.47,2.84-0.95
			C609.17,460.68,609.59,461.95,609.07,462.99"/>
		<path class="st79" d="M583.67,457.45c0.93-1.35,2.42-2.31,4.04-2.6c1.62-0.29,3.34,0.09,4.69,1.03"/>
		<path class="st79" d="M611.54,457.45c-0.93-1.35-2.42-2.31-4.04-2.6c-1.62-0.29-3.34,0.09-4.69,1.03"/>
		<path class="st78" d="M617.19,469.37c-0.17,2.93-1.31,5.79-3.2,8.03c-1.89,2.24-4.52,3.85-7.38,4.5"/>
		<path d="M608.02,481.49c-0.08-0.21-0.23-0.42-0.44-0.51c-0.22-0.1-0.46-0.13-0.69-0.05c-0.38,0.12-0.76,0.24-1.15,0.36
			c-0.21,0.07-0.41,0.24-0.51,0.44c-0.06,0.11-0.09,0.22-0.09,0.35c-0.02,0.12-0.01,0.23,0.03,0.35c0.08,0.21,0.23,0.42,0.44,0.51
			c0.22,0.1,0.46,0.13,0.69,0.06l1.15-0.36c0.21-0.07,0.41-0.24,0.51-0.44c0.06-0.11,0.09-0.22,0.09-0.35
			C608.08,481.72,608.07,481.61,608.02,481.49"/>
		<polygon points="553.23,590.97 527.44,573.62 527.44,579.2 553.23,591.61 		"/>
		<polygon class="st74" points="527.44,579.2 527.44,602.24 553.23,602.24 553.23,591.61 		"/>
		<polygon points="673.44,579.12 646.28,595.09 646.28,596.29 673.44,585.09 		"/>
		<polygon class="st74" points="646.28,596.29 646.28,602.24 673.44,602.24 673.44,585.09 		"/>
		<path class="st70" d="M671.34,530.95c-0.73-5.23-1.7-10.81-5.37-14.61c-2.81-2.91-6.79-4.34-10.66-5.53
			c-11.85-3.67-25.11-5.22-37.46-6.4c-0.78-2.25-1.56-4.5-2.34-6.74c-4.4,1.75-8.56,3.53-12.96,5.27c-1.16,2.94-1.82,5.34-2.89,8.19
			c-1.08-2.85-1.73-5.25-2.9-8.19c-4.4-1.75-8.56-3.53-12.96-5.27c-0.78,2.25-1.56,4.5-2.34,6.74c-12.35,1.18-25.61,2.73-37.46,6.4
			c-3.87,1.2-7.85,2.62-10.66,5.53c-3.66,3.8-4.64,9.38-5.37,14.61c-1.86,13.35-3.15,26.85-3.93,40.38l29.2,19.64v11.27h46.12h0.6
			h46.32v-7.15l29.34-17.24C674.89,562.15,673.5,546.44,671.34,530.95"/>
		<line class="st78" x1="599.76" y1="513.36" x2="599.76" y2="602.04"/>
		<line class="st78" x1="553.23" y1="550.79" x2="553.23" y2="602.04"/>
		<line class="st78" x1="646.28" y1="550.79" x2="646.28" y2="602.04"/>
		<path class="st78" d="M581.57,504.68c2.43,3.77,5.42,7.19,8.84,10.1c1.73-3.63,3.4-7.48,5.13-11.11"/>
		<path class="st78" d="M617.49,504.68c-2.43,3.77-5.42,7.19-8.84,10.1c-1.73-3.63-3.4-7.48-5.13-11.11"/>
		<rect x="612.94" y="559.74" class="st69" width="25.6" height="4.08"/>
		<path class="st74" d="M677.42,602.24c3.35-17.68,6.7-35.37,10.05-53.05l-11.68-8.36c-9.8,17.81-17.84,36.64-23.97,56.11
			c-0.55,1.74-1.08,3.5-1.47,5.29H677.42z"/>
		<path class="st74" d="M673.99,544.93c0.34-5.04,5.83-10.71,10.86-11.24c3.43-3.45,5.8-5.76,9.23-9.2
			c1.08,0.01,1.89,1.12,1.95,2.19c0.06,1.08-0.43,2.1-0.96,3.04c-1.49,2.65-3.47,4.6-5.68,6.7c0.4,3-0.05,6.46-1.76,8.96
			c-1.46,2.12-3.7,3.81-6.26,4.16C678.82,549.89,675.15,547.24,673.99,544.93"/>
		<path class="st74" d="M696.39,536.61c0,0-8.76,1.82-9.53,2.05c-3.54,1.04-9.83-0.4-12.01,2.88c-2.27,3.41-0.39,8.99,2.47,11.25
			c5.15,4.06,13.59,2.48,20.08,1.55C699.62,548.2,698.42,542.81,696.39,536.61"/>
		<path class="st74" d="M695.92,542.76c4.42-1.45,8.65-3.46,12.56-5.97c1.3-3.23,1.77-6.35,2.45-9.76
			c-0.53-0.42-1.45-0.39-2.05-0.08c-0.6,0.31-1.04,0.86-1.43,1.42c-1.06,1.53-1.82,3.27-2.21,5.09c-3.15,1.81-7.04,2.94-10.62,3.5
			L695.92,542.76z"/>
		<path class="st74" d="M698.12,546c4.56-0.89,10.52-2.72,14.71-4.72c1.69-3.04,2.54-6.08,3.64-9.38c-0.47-0.49-1.39-0.57-2.03-0.33
			c-0.63,0.24-1.14,0.72-1.6,1.23c-1.24,1.39-2.21,3.02-2.83,4.78c-3.35,1.4-10.87,3.34-14.5,3.44L698.12,546z"/>
		<path class="st74" d="M696.32,550.32c4.64-0.23,10.8-1.19,15.24-2.56c2.11-2.77,3.39-5.65,4.95-8.77c-0.4-0.55-1.3-0.76-1.96-0.62
			c-0.66,0.14-1.23,0.55-1.75,0.99c-1.43,1.2-2.62,2.67-3.48,4.32c-3.52,0.91-11.23,1.74-14.84,1.33L696.32,550.32z"/>
		<path class="st74" d="M694.18,554.57c4.18-0.17,9.72-0.98,13.73-2.19c1.92-2.48,3.09-5.06,4.52-7.85c-0.35-0.5-1.16-0.7-1.76-0.57
			c-0.6,0.13-1.11,0.49-1.59,0.88c-1.29,1.07-2.38,2.39-3.16,3.86c-3.17,0.79-10.12,1.48-13.36,1.08L694.18,554.57z"/>
		<path class="st78" d="M712.38,544.34c-0.84-0.53-1.98-0.37-2.83,0.14c-0.86,0.51-1.49,1.3-2.11,2.08c-0.5,0.63-1,1.26-1.5,1.89
			c-3.63,0.46-7.09,0.89-10.72,1.35"/>
		<path class="st78" d="M716.43,538.74c-1.49-0.64-3.28-0.08-4.51,0.97c-1.23,1.05-2.02,2.52-2.79,3.95
			c-3.28,1.09-6.67,1.73-10.11,2.03"/>
		<path class="st78" d="M689.39,536.41c0.18,5.02-2.77,10.02-7.26,12.3"/>
		<path class="st78" d="M696.81,540.96c4.44-0.68,8.81-1.78,13.04-3.28c0.61-1.48,1.26-3.01,2.31-4.22c1.05-1.21,2.61-2.1,4.21-1.92
			"/>
		<path class="st78" d="M650.36,602.24c0,0,4.18-15.53,9.88-28.7"/>
		<path class="st80" d="M378.54,594.43c-1.27,8.45-2.41,17.67,1.94,25.02c3.73,6.31,11.29,10.02,18.61,9.49
			c7.31-0.53,14.12-5.1,17.73-11.48c3.27-5.77,4-12.61,4.31-19.23c1.19-25.63-3.08-51.47-12.25-75.42
			c-2.37-6.19-5.07-12.25-8.09-18.16c-2.55-5-5.74-8.53-8.44-1.16c-2.34,6.37-5.43,35.32-6.48,42.31
			C383.42,562.02,380.98,578.23,378.54,594.43"/>
		<path d="M408.87,522.82c-2.37-6.19-5.07-12.25-8.09-18.15c-2.55-5-5.74-8.53-8.44-1.16c-2.34,6.37,16.67,79.43,9.91,103.75
			c-1.97,6.89-4.43,14.35-7.64,21.49c1.48,0.23,2.98,0.31,4.47,0.2c7.31-0.53,14.12-5.1,17.73-11.48c3.27-5.77,4-12.61,4.31-19.23
			C422.31,572.61,418.04,546.77,408.87,522.82"/>
		<path d="M494.12,413.42c-4.67,16.55-21.87,26.17-38.42,21.5c-16.55-4.67-26.17-21.87-21.5-38.42
			c4.67-16.55,21.87-26.17,38.42-21.5C489.17,379.67,498.79,396.87,494.12,413.42"/>
		<path class="st80" d="M452.79,429.94l-21.28,69.49c11.48,6.34,15.29,9.94,26.76,16.28c5.16-23.11,8.69-46.15,13.84-69.26
			C467.27,440.3,457.63,436.09,452.79,429.94"/>
		<path d="M469.37,459.5c0.88-4.35,1.78-8.69,2.75-13.04c-4.85-6.16-4.14-11.65-8.99-17.8c-0.07,0.14-1.72,0-1.79,0.13
			C461.7,432.53,463.95,454.16,469.37,459.5"/>
		<path class="st80" d="M464.27,414.72c-1.19-4.25-7.19-5.83-10.86-3.38c-3.68,2.45-4.82,7.64-3.47,11.85
			c1.35,4.21,4.73,7.49,8.48,9.83c-0.34,1.6,11.81,20.92,30.71,26.05c2.85,0.77,4.77-4.51,5.27-6.24c1.47-5.06,1.88-6.38,3.34-11.44
			c1.74-0.3,8.27-1.81,7.55-3.42c-3.59-8.07-5-10.06-5.95-15.1c0,0,2.11-6.09,2.79-8.11c-1.14-7.14-6.48-17.32-10.07-23.6
			c-6.64-0.05-10.57,1.37-17.05,2.85c0.06,3.39-0.41,9.61-0.35,13C469.84,410.58,469.1,411.16,464.27,414.72"/>
		<path class="st78" d="M454.04,414.41c1.78-1,4.18-0.74,5.7,0.62c1.52,1.36,2.04,3.72,1.23,5.6c-0.89-0.8-2.55-0.41-2.98,0.71
			c-0.43,1.12,0.54,2.52,1.74,2.52"/>
		<path d="M495.23,420.17c-0.22,1.52-1.42,2.6-2.68,2.42c-1.26-0.18-2.11-1.56-1.89-3.08c0.22-1.52,1.42-2.6,2.68-2.42
			C494.61,417.27,495.46,418.65,495.23,420.17"/>
		<path class="st79" d="M485.31,412.74c2.65-1.99,6.02-3.04,9.33-2.7c1.33,0.14,2.58,0.69,3.02,2.04"/>
		<path class="st69" d="M494.29,442.73c-3.3-1.12-6.6-2.24-9.9-3.35c1.37,3.94,4.52,7.06,8.64,7.78
			C493.77,445.55,493.54,444.33,494.29,442.73"/>
		<path d="M503.68,390.5c1.39,4.29,0.39,9.05-1.96,12.91c-2.35,3.87-5.93,6.92-9.8,9.43c-7.88,5.11-17.21,8.18-26.73,8.8
			c-2.91,0.19-6.1,0.25-8.27,2.1c-2.78,2.37-2.59,6.62-1.41,10.02c1.18,3.4,3.14,6.66,3.17,10.24c0.05,4.82-3.58,9.14-8.09,11.28
			c-4.5,2.14-9.73,2.44-14.76,2.18c-6.74-0.35-13.72-1.76-19-5.8c-5.29-4.04-8.37-11.22-5.82-17.19c1.92-4.49,6.43-7.39,9.53-11.23
			c9.03-11.16,4.98-28.29,13.27-39.96c6.06-8.53,17.68-12.18,28.47-11.62c9.34,0.49,18.25,3.65,26.75,7.22
			C494.71,381.27,501.72,384.43,503.68,390.5"/>
		<path class="st70" d="M473.94,478.2c-9.25-6.33-15.3-11.29-25.55-15.82c-3.63-1.61-8.54-2.2-12.5-1.84
			c-2.14,4.03-3.88,8.26-5.21,12.62c-0.82,0.17-1.65,0.34-2.48,0.5c15.65,0.85,30.98,5.4,45.32,12.18
			C473.53,482.17,473.94,478.2,473.94,478.2"/>
		<path class="st80" d="M599.41,614.46c6.45,6.19,16.43,8.42,24.91,5.58c-1.37-5.21-2.01-10.99-3.37-16.2
			c-9.34-4.42-20.13-4.98-29.88-1.57C592.77,606.86,595.88,611.08,599.41,614.46"/>
		<path class="st80" d="M619.83,615.31c3.35,1.22,10.79,4.5,14.13,5.72c1.62,3.79,3.56,8.1,5.18,11.89
			c-2.61,0.89-6.44-4.5-8.38-9.35c-4.18-1.44-7.6-2.53-11.78-3.97"/>
		<path class="st80" d="M620.03,609.25c4.45,1.63,14.35,5.98,18.8,7.61c2.15,5.04,4.74,10.77,6.89,15.81
			c-3.47,1.18-8.56-5.98-11.14-12.43c-5.56-1.92-10.11-3.36-15.67-5.28"/>
		<path class="st80" d="M618.1,607.32c4.74-0.02,15.53,0.63,20.27,0.61c3.77,3.98,8.18,8.46,11.95,12.44
			c-2.84,2.31-10.11-2.64-14.76-7.8c-5.88,0.13-10.65,0.35-16.52,0.48"/>
		<path class="st80" d="M614.51,602.48c4.74-0.02,15.53,0.63,20.27,0.61c3.76,3.98,8.18,8.46,11.95,12.44
			c-2.84,2.31-10.11-2.64-14.76-7.8c-5.88,0.13-10.65,0.35-16.52,0.48"/>
		<path class="st78" d="M650.15,620.12c-5.13-4.35-8.93-8.29-14.06-12.65c-5.5-0.43-9.43,0.55-13.45,0.53"/>
		<path class="st75" d="M498.03,616.87c-1.02-16.08,0.7-33.01,7.93-52.54c3.66-9.89-1.77-32.32-3.33-46.12
			c-0.81-7.15-4.17-13.78-9.58-18.53c-5.66-4.97-12.98-10.71-19.52-13.72c0-3.71,0.41-7.76,0.41-7.76
			c-9.25-6.33-15.3-11.29-25.55-15.82c-3.63-1.61-8.54-2.2-12.5-1.84c-2.14,4.03-3.88,8.26-5.21,12.62
			c-8.03,1.64-16.71,3.34-25.1,5.32c-7.57,1.79-13.33,7.99-14.52,15.68c-2.71,17.6-2.5,36.12,3.15,52.62
			c3.14,9.17,7.42,17.92,10.49,27.11c3.07,9.19,4.9,19.09,2.95,28.58c-0.93,4.51-2.64,8.69-4.79,12.69
			C434.33,618.05,466.46,619.55,498.03,616.87"/>
		<path d="M498.66,593.77l-33.44-54.18l14.31,78.38c6.18-0.23,12.35-0.58,18.5-1.11C497.55,609.41,497.68,601.77,498.66,593.77"/>
		<path class="st75" d="M502.63,518.2c-0.81-7.15-4.17-13.78-9.58-18.52c-5.66-4.97-12.98-10.72-19.52-13.72
			c0-3.71,0.41-7.75,0.41-7.75c-9.24-6.33-15.3-11.29-25.55-15.83c-3.63-1.61-8.54-2.2-12.5-1.84c-2.14,4.03-3.88,8.26-5.21,12.62
			c-8.03,1.64-16.71,3.34-25.1,5.32c-7.58,1.79-13.33,7.99-14.52,15.68c-2.71,17.6-2.5,36.12,3.15,52.62
			c3.14,9.17,7.42,17.92,10.48,27.11c3.07,9.19,4.9,19.09,2.95,28.58c-0.93,4.51-2.64,8.69-4.79,12.69
			c25.35,2.33,51.11,3.75,76.67,2.82l-14.31-78.38l33.44,54.18c1.14-9.25,3.42-18.97,7.3-29.45
			C509.62,554.44,504.19,532.01,502.63,518.2"/>
		<path class="st70" d="M402.86,615.16c-5.48,10.18-13.82,19.19-19.4,29.48c-5.08,9.36-7.88,19.95-8.1,30.6h133.72
			c-4.44-20.32-9.8-38.71-11.06-58.37C466.46,619.55,434.33,618.05,402.86,615.16"/>
		<path class="st78" d="M402.64,622.62c30.39,2.98,61,3.78,91.51,2.4"/>
		<path class="st78" d="M467.13,645.91c5.4-0.34,10.9-0.71,15.92-2.71c5.02-2,9.57-5.96,10.87-11.2"/>
		<path class="st78" d="M421.32,675.25c-0.02-9.43,2.09-18.88,6.18-27.37"/>
		<path class="st78" d="M503.01,522.22c-12.82,4.33-25.83,8.09-38.99,11.27c-0.92-0.95-1.77-2.5-2.23-3.74
			c-1.36-3.63-2.43-7.36-3.21-11.15"/>
		<path class="st80" d="M599.02,601.51c-25.84,1.05-57,2.52-83.35,3.61l-12.56-83.17l-15.49,5.18l-23.51,6.33l24.66,99.24
			c1.2,4.82,5.96,7.84,10.83,6.87c29.4-5.86,77.6-18.06,101.48-25.28C600.38,609.77,599.73,606.02,599.02,601.51"/>
		<path d="M792.75,621.91c-0.6-5.73-4.83-10.87-10.2-13.1c-5.76-2.39-12.53-1.68-18.12,1.09c-5.35,2.65-9.68,7.04-13.01,12H792.75z"
			/>
		<rect x="272.48" y="273.04" class="st63" width="603.31" height="402.21"/>
	</g>
	<rect x="691.82" y="467.96" class="st63" width="122.5" height="12.86"/>
	<text transform="matrix(1 0 0 1 691.8174 478.323)" class="st81 st82">R</text>
	<text transform="matrix(0.7 0 0 0.7 700.791 478.323)" class="st81 st82">eady</text>
	<text transform="matrix(1 0 0 1 726.2803 478.323)" class="st81 st82"> </text>
	<text transform="matrix(0.7 0 0 0.7 729.6123 478.323)" class="st81 st82">to</text>
	<text transform="matrix(1 0 0 1 742.96 478.323)" class="st81 st82"> </text>
	<text transform="matrix(0.7 0 0 0.7 746.292 478.323)" class="st81 st82">move</text>
	<text transform="matrix(1 0 0 1 774.9775 478.323)" class="st81 st82"> </text>
	<text transform="matrix(0.7 0 0 0.7 778.3096 478.323)" class="st81 st82">in</text>
	<text transform="matrix(1 0 0 1 788.2373 478.323)" class="st81 st82">?</text>
	<rect x="691.37" y="467.56" class="st63" width="122.5" height="12.86"/>
	<text transform="matrix(1 0 0 1 691.3674 477.923)" class="st68 st81 st82">R</text>
	<text transform="matrix(0.7 0 0 0.7 700.3411 477.923)" class="st68 st81 st82">eady</text>
	<text transform="matrix(1 0 0 1 725.8303 477.923)" class="st68 st81 st82"> </text>
	<text transform="matrix(0.7 0 0 0.7 729.1624 477.923)" class="st68 st81 st82">to</text>
	<text transform="matrix(1 0 0 1 742.51 477.923)" class="st68 st81 st82"> </text>
	<text transform="matrix(0.7 0 0 0.7 745.842 477.923)" class="st68 st81 st82">move</text>
	<text transform="matrix(1 0 0 1 774.5276 477.923)" class="st68 st81 st82"> </text>
	<text transform="matrix(0.7 0 0 0.7 777.8596 477.923)" class="st68 st81 st82">in</text>
	<text transform="matrix(1 0 0 1 787.7874 477.923)" class="st68 st81 st82">?</text>
	<rect x="628.91" y="405.8" class="st63" width="145" height="24.23"/>
	<text transform="matrix(1 0 0 1 628.9113 416.897)" class="st81 st83">C</text>
	<text transform="matrix(0.7 0 0 0.7 640.4308 416.897)" class="st81 st83">ampus</text>
	<text transform="matrix(1 0 0 1 677.4845 416.897)" class="st81 st83">C</text>
	<text transform="matrix(0.7 0 0 0.7 689.004 416.897)" class="st81 st83">rib</text>
	<text transform="matrix(1 0 0 1 705.4044 416.897)" class="st81 st83">’</text>
	<text transform="matrix(0.7 0 0 0.7 709.5294 416.897)" class="st81 st83">s</text>
	<text transform="matrix(1 0 0 1 715.924 416.897)" class="st81 st83"> </text>
	<text transform="matrix(0.7 0 0 0.7 719.4943 416.897)" class="st81 st83">got</text>
	<text transform="matrix(1 0 0 1 741.8585 416.897)" class="st81 st83"> </text>
	<text transform="matrix(0.7 0 0 0.7 745.4288 416.897)" class="st81 st83">you</text>
	<text transform="matrix(1 0 0 1 767.6671 416.897)" class="st81 st83">!</text>
</g>
</svg>
